<svg width="128" height="128" viewBox="0 0 128 128" fill="none" xmlns="http://www.w3.org/2000/svg">
<path d="M0 26.7541C0 11.9782 11.9782 0 26.7541 0H101.246C116.022 0 128 11.9782 128 26.7541V101.246C128 116.022 116.022 128 101.246 128H26.7541C11.9782 128 0 116.022 0 101.246V26.7541Z" fill="#020310"/>
<path d="M23.2565 97.5295L52.8632 99.818H52.9771C53.5465 99.818 54.0019 99.4747 54.1158 99.017C57.3042 86.6596 61.973 72.7004 64.0227 71.6706H64.1365C66.0724 72.8148 70.7411 86.7741 74.0434 99.017C74.1573 99.5891 74.7266 99.9324 75.1821 99.818L104.789 97.5295C105.13 97.5295 105.358 97.3007 105.586 97.0719C105.814 96.843 105.814 96.4998 105.814 96.1565L94.3126 35.6282V28.8774C94.3126 28.1909 93.8571 27.7332 93.1739 27.7332H34.9853C34.3021 27.7332 33.8466 28.1909 33.8466 28.8774V35.6282L22.2317 96.1565C22.1178 96.4998 22.2317 96.843 22.4594 97.0719C22.6872 97.4151 22.9149 97.5295 23.2565 97.5295ZM35.588 34.2995C35.588 33.72 36.0577 33.2503 36.6372 33.2503H91.5221C92.1015 33.2503 92.5712 33.72 92.5712 34.2995V36.7779C92.5712 37.3574 92.1015 37.8271 91.5221 37.8271H36.6372C36.0577 37.8271 35.588 37.3574 35.588 36.7779V34.2995Z" fill="#EB1997"/>
<path d="M97.2806 77.8666C97.2806 79.1627 96.2299 80.2133 94.9339 80.2133C93.6379 80.2133 92.5872 79.1627 92.5872 77.8666C92.5872 76.5706 93.6379 75.52 94.9339 75.52C96.2299 75.52 97.2806 76.5706 97.2806 77.8666Z" fill="#FFE920"/>
<path d="M87.04 89.3866C87.04 90.6826 85.9893 91.7333 84.6933 91.7333C83.3973 91.7333 82.3466 90.6826 82.3466 89.3866C82.3466 88.0906 83.3973 87.0399 84.6933 87.0399C85.9893 87.0399 87.04 88.0906 87.04 89.3866Z" fill="#FFE920"/>
<path d="M82.3467 75.3067C82.3467 76.6028 81.2961 77.6534 80 77.6534C78.704 77.6534 77.6534 76.6028 77.6534 75.3067C77.6534 74.0107 78.704 72.9601 80 72.9601C81.2961 72.9601 82.3467 74.0107 82.3467 75.3067Z" fill="#FFE920"/>
<path d="M52.9066 73.1733C52.9066 74.4694 51.856 75.52 50.5599 75.52C49.2639 75.52 48.2133 74.4694 48.2133 73.1733C48.2133 71.8773 49.2639 70.8267 50.5599 70.8267C51.856 70.8267 52.9066 71.8773 52.9066 73.1733Z" fill="#FFE920"/>
<path d="M45.6534 52.2668C45.6534 53.5629 44.6028 54.6135 43.3067 54.6135C42.0107 54.6135 40.9601 53.5629 40.9601 52.2668C40.9601 50.9708 42.0107 49.9202 43.3067 49.9202C44.6028 49.9202 45.6534 50.9708 45.6534 52.2668Z" fill="#FFE920"/>
<path d="M50.3467 89.3866C50.3467 90.6826 49.2961 91.7333 48 91.7333C46.704 91.7333 45.6534 90.6826 45.6534 89.3866C45.6534 88.0906 46.704 87.0399 48 87.0399C49.2961 87.0399 50.3467 88.0906 50.3467 89.3866Z" fill="#FFE920"/>
<path d="M37.9738 82.5599C37.9738 83.856 36.9232 84.9066 35.6271 84.9066C34.3311 84.9066 33.2805 83.856 33.2805 82.5599C33.2805 81.2639 34.3311 80.2133 35.6271 80.2133C36.9232 80.2133 37.9738 81.2639 37.9738 82.5599Z" fill="#FFE920"/>
<path d="M37.9738 66.3467C37.9738 67.6427 36.9232 68.6933 35.6271 68.6933C34.3311 68.6933 33.2805 67.6427 33.2805 66.3467C33.2805 65.0506 34.3311 64 35.6271 64C36.9232 64 37.9738 65.0506 37.9738 66.3467Z" fill="#FFE920"/>
<path d="M57.5998 59.0936C57.5998 60.3896 56.5492 61.4402 55.2532 61.4402C53.9571 61.4402 52.9065 60.3896 52.9065 59.0936C52.9065 57.7975 53.9571 56.7469 55.2532 56.7469C56.5492 56.7469 57.5998 57.7975 57.5998 59.0936Z" fill="#FFE920"/>
<path d="M92.5862 61.6534C92.5862 62.9495 91.5356 64.0001 90.2395 64.0001C88.9435 64.0001 87.8929 62.9495 87.8929 61.6534C87.8929 60.3574 88.9435 59.3068 90.2395 59.3068C91.5356 59.3068 92.5862 60.3574 92.5862 61.6534Z" fill="#FFE920"/>
<path d="M77.6534 59.52C77.6534 60.816 76.6028 61.8667 75.3067 61.8667C74.0107 61.8667 72.9601 60.816 72.9601 59.52C72.9601 58.224 74.0107 57.1733 75.3067 57.1733C76.6028 57.1733 77.6534 58.224 77.6534 59.52Z" fill="#FFE920"/>
<path d="M87.04 47.5735C87.04 48.8696 85.9893 49.9202 84.6933 49.9202C83.3973 49.9202 82.3466 48.8696 82.3466 47.5735C82.3466 46.2775 83.3973 45.2269 84.6933 45.2269C85.9893 45.2269 87.04 46.2775 87.04 47.5735Z" fill="#FFE920"/>
</svg>
