<svg width="244" height="244" viewBox="0 0 244 244" fill="none" xmlns="http://www.w3.org/2000/svg">
<path d="M0 51C0 22.8335 22.8335 0 51 0H193C221.167 0 244 22.8335 244 51V193C244 221.167 221.167 244 193 244H51C22.8335 244 0 221.167 0 193V51Z" fill="#020310"/>
<path d="M44.3317 185.916L100.77 190.279H100.987C102.072 190.279 102.94 189.624 103.157 188.752C109.235 165.196 118.135 138.586 122.042 136.623H122.259C125.949 138.804 134.849 165.414 141.144 188.752C141.361 189.843 142.447 190.497 143.315 190.279L199.753 185.916C200.404 185.916 200.838 185.48 201.272 185.044C201.706 184.608 201.706 183.953 201.706 183.299L179.782 67.917V55.0483C179.782 53.7396 178.914 52.8672 177.612 52.8672H66.6898C65.3874 52.8672 64.5191 53.7396 64.5191 55.0483V67.917L42.3781 183.299C42.1611 183.953 42.3781 184.608 42.8123 185.044C43.2464 185.698 43.6805 185.916 44.3317 185.916ZM67.8386 65.3841C67.8386 64.2795 68.734 63.3841 69.8386 63.3841H174.463C175.567 63.3841 176.463 64.2795 176.463 65.3841V70.1086C176.463 71.2132 175.567 72.1086 174.463 72.1086H69.8386C68.734 72.1086 67.8386 71.2132 67.8386 70.1086V65.3841Z" fill="#EB1997"/>
<path d="M185.441 148.432C185.441 150.903 183.438 152.906 180.967 152.906C178.497 152.906 176.494 150.903 176.494 148.432C176.494 145.962 178.497 143.959 180.967 143.959C183.438 143.959 185.441 145.962 185.441 148.432Z" fill="#FFE920"/>
<path d="M165.919 170.393C165.919 172.864 163.917 174.867 161.446 174.867C158.975 174.867 156.973 172.864 156.973 170.393C156.973 167.923 158.975 165.92 161.446 165.92C163.917 165.92 165.919 167.923 165.919 170.393Z" fill="#FFE920"/>
<path d="M156.974 143.553C156.974 146.024 154.971 148.027 152.501 148.027C150.03 148.027 148.027 146.024 148.027 143.553C148.027 141.083 150.03 139.08 152.501 139.08C154.971 139.08 156.974 141.083 156.974 143.553Z" fill="#FFE920"/>
<path d="M100.853 139.487C100.853 141.958 98.8501 143.96 96.3796 143.96C93.909 143.96 91.9062 141.958 91.9062 139.487C91.9062 137.016 93.909 135.014 96.3796 135.014C98.8501 135.014 100.853 137.016 100.853 139.487Z" fill="#FFE920"/>
<path d="M87.0267 99.6335C87.0267 102.104 85.024 104.107 82.5534 104.107C80.0829 104.107 78.0801 102.104 78.0801 99.6335C78.0801 97.1629 80.0829 95.1602 82.5534 95.1602C85.024 95.1602 87.0267 97.1629 87.0267 99.6335Z" fill="#FFE920"/>
<path d="M95.974 170.393C95.974 172.864 93.9712 174.867 91.5007 174.867C89.0301 174.867 87.0273 172.864 87.0273 170.393C87.0273 167.923 89.0301 165.92 91.5007 165.92C93.9712 165.92 95.974 167.923 95.974 170.393Z" fill="#FFE920"/>
<path d="M72.3881 157.38C72.3881 159.85 70.3853 161.853 67.9147 161.853C65.4442 161.853 63.4414 159.85 63.4414 157.38C63.4414 154.909 65.4442 152.906 67.9147 152.906C70.3853 152.906 72.3881 154.909 72.3881 157.38Z" fill="#FFE920"/>
<path d="M72.3881 126.473C72.3881 128.944 70.3853 130.947 67.9147 130.947C65.4442 130.947 63.4414 128.944 63.4414 126.473C63.4414 124.003 65.4442 122 67.9147 122C70.3853 122 72.3881 124.003 72.3881 126.473Z" fill="#FFE920"/>
<path d="M109.8 112.647C109.8 115.118 107.797 117.12 105.327 117.12C102.856 117.12 100.854 115.118 100.854 112.647C100.854 110.177 102.856 108.174 105.327 108.174C107.797 108.174 109.8 110.177 109.8 112.647Z" fill="#FFE920"/>
<path d="M176.492 117.526C176.492 119.997 174.489 121.999 172.018 121.999C169.548 121.999 167.545 119.997 167.545 117.526C167.545 115.056 169.548 113.053 172.018 113.053C174.489 113.053 176.492 115.056 176.492 117.526Z" fill="#FFE920"/>
<path d="M148.027 113.46C148.027 115.93 146.024 117.933 143.553 117.933C141.083 117.933 139.08 115.93 139.08 113.46C139.08 110.989 141.083 108.986 143.553 108.986C146.024 108.986 148.027 110.989 148.027 113.46Z" fill="#FFE920"/>
<path d="M165.919 90.6862C165.919 93.1568 163.917 95.1596 161.446 95.1596C158.975 95.1596 156.973 93.1568 156.973 90.6862C156.973 88.2157 158.975 86.2129 161.446 86.2129C163.917 86.2129 165.919 88.2157 165.919 90.6862Z" fill="#FFE920"/>
</svg>
